<?xml version="1.0"?>
<svg xmlns="http://www.w3.org/2000/svg" xmlns:xlink="http://www.w3.org/1999/xlink" version="1.1" id="Capa_1" x="0px" y="0px" viewBox="0 0 203.47 203.47" style="enable-background:new 0 0 203.47 203.47;" xml:space="preserve" width="512px" height="512px"><g><path d="M39.405,198.76H29.222c-0.124,0-0.245-0.009-0.364-0.026H7.99c-0.894,0-1.72-0.478-2.166-1.252  s-0.445-1.729,0.003-2.502l20.895-36.039V43.544H2.5c-1.07,0-2.021-0.681-2.366-1.693s-0.008-2.133,0.839-2.786l25.749-19.865V7.211  c0-1.381,1.119-2.5,2.5-2.5h10.183c1.381,0,2.5,1.119,2.5,2.5v11.014L96.8,26.699c0.021,0.003,0.042,0.007,0.062,0.01l76.809,11.858  c0.299,0.041,0.582,0.135,0.838,0.272c0.251,0.134,0.476,0.31,0.665,0.517c0.002,0.003,0.003,0.003,0.003,0.004  c0.303,0.332,0.517,0.746,0.606,1.204c0.031,0.162,0.047,0.328,0.046,0.497v43.436l26.916,27.112  c0.711,0.717,0.921,1.791,0.534,2.723c-0.388,0.932-1.299,1.539-2.308,1.539h-55.485c-1.011,0-1.923-0.609-2.31-1.543  c-0.387-0.935-0.173-2.01,0.542-2.725l27.111-27.111V43.544h-57.884c-0.021,0-0.04,0-0.06,0H41.905v115.122l31.732,35.912  c0.651,0.736,0.81,1.786,0.406,2.683c-0.404,0.896-1.296,1.473-2.279,1.473H39.77C39.65,198.751,39.529,198.76,39.405,198.76z   M41.905,193.733h24.314l-24.314-27.517V193.733z M31.722,193.733h5.183v-34.11c0-0.007,0-0.013,0-0.019V43.544h-5.183v116.025  c0,0.03,0,0.061,0,0.091V193.733z M12.33,193.733h14.393v-24.825L12.33,193.733z M151.521,110.871h43.445l-21.644-21.802  L151.521,110.871z M113.724,38.544h27.027l-34.394-5.31L113.724,38.544z M88.232,38.544h16.941l-8.686-6.26L88.232,38.544z   M61.48,38.544h15.556l-7.522-9.557L61.48,38.544z M41.905,38.544h9.873l-9.873-11.448V38.544z M31.722,38.544h5.183V22.868h-5.183  V38.544z M9.834,38.544h16.889V25.514L9.834,38.544z M75.466,28.465l6.646,8.444l8.127-6.163L75.466,28.465z M45.73,23.874  l10.912,12.654l8.163-9.709L45.73,23.874z M31.722,17.868h5.183V9.711h-5.183V17.868z" data-original="#000002" class="active-path" data-old_color="#000002" fill="#F3B007"/></g> </svg>
