<?xml version="1.0"?>
<svg xmlns="http://www.w3.org/2000/svg" xmlns:xlink="http://www.w3.org/1999/xlink" version="1.1" id="Capa_1" x="0px" y="0px" viewBox="0 0 204.563 204.563" style="enable-background:new 0 0 204.563 204.563;" xml:space="preserve" width="512px" height="512px" class=""><g transform="matrix(1, 0, 0, 1, 0, 0)"><path d="M23.922,174.146c-8.612,0-17.752-3.061-20.739-8.806c-3.2-6.152-3.196-12.952-3.181-41.568  l0.002-6.64c0-24.155,8.066-43.141,12.887-54.484c1.494-3.518,3.04-7.155,3.04-8.255c0-2.931-0.852-5.319-1.565-6.809  c-0.723-1.506-1.089-3.115-1.089-4.785c0-4.535,2.716-8.564,6.92-10.266l3.229-1.308c1.329-0.537,2.727-0.809,4.155-0.809h108.124  c1.381,0,2.5,1.119,2.5,2.5v0.396H149.7c1.27,0,2.318,0.946,2.479,2.172h16.946c8.446,0,15.461,6.243,16.673,14.357h16.265  c1.381,0,2.5,1.119,2.5,2.5s-1.119,2.5-2.5,2.5h-16.265c-1.212,8.114-8.227,14.357-16.673,14.357h-16.946  c-0.16,1.226-1.209,2.172-2.479,2.172h-12.14l-0.945,3.132c-1.701,5.636-5.336,10.538-10.234,13.803l-11.125,7.417  c-3.648,2.434-7.897,3.72-12.285,3.72H57.885c-0.03,2.355-0.051,6.196,0.045,10.516c0.088,3.94,1.184,7.472,2.086,9.74  c0.529,1.33,0.451,2.816-0.213,4.077c-0.659,1.253-1.829,2.15-3.21,2.464l-6.947,1.576v0.899c0,1.191-0.841,2.218-2.01,2.451  l-5.222,1.044c0.021,4.016,0.111,13.186,0.472,20.757c0.456,9.568-0.118,17.709-11.828,20.411  C28.828,173.893,26.397,174.146,23.922,174.146z M20.506,56.893c-0.545,1.899-1.593,4.365-3.014,7.711  C12.821,75.596,5.004,93.994,5.004,117.132l-0.002,6.643c-0.015,26.948-0.019,34.191,2.616,39.259  c2.443,4.698,13.703,7.462,22.314,5.474c7.409-1.71,8.443-5.146,7.959-15.302c-0.479-10.078-0.485-22.914-0.485-23.043  c0-1.191,0.841-2.218,2.01-2.451l5.229-1.046V96.942c0-1.381,1.119-2.5,2.5-2.5h55.825c0.76,0,1.515-0.05,2.261-0.148  c-1.35-0.036-2.432-1.142-2.432-2.499c0-1.381,1.119-2.5,2.5-2.5h7.48c0.738,0,1.402,0.32,1.859,0.829l8.968-5.979  c3.936-2.623,6.854-6.561,8.221-11.088l1.376-4.556V35.417H27.58c-0.784,0-1.551,0.149-2.28,0.444l-3.228,1.307  c-2.307,0.933-3.796,3.144-3.796,5.631c0,0.915,0.201,1.797,0.597,2.623c0.728,1.516,1.563,3.744,1.902,6.471h66.909  c1.381,0,2.5,1.119,2.5,2.5s-1.119,2.5-2.5,2.5H20.506z M49.646,99.442v23.246l5.668-1.285c-1.044-2.654-2.28-6.733-2.382-11.334  c-0.097-4.345-0.078-8.218-0.047-10.627H49.646z M138.204,66.371h8.996V38.313h-8.996V66.371z M152.2,64.199h16.925  c6.538,0,11.857-5.319,11.857-11.857s-5.319-11.857-11.857-11.857H152.2V64.199z M112.78,85.729h-7.48c-1.381,0-2.5-1.119-2.5-2.5  s1.119-2.5,2.5-2.5h7.48c1.381,0,2.5,1.119,2.5,2.5S114.161,85.729,112.78,85.729z M112.78,77.162h-7.48c-1.381,0-2.5-1.119-2.5-2.5  s1.119-2.5,2.5-2.5h7.48c1.381,0,2.5,1.119,2.5,2.5S114.161,77.162,112.78,77.162z M112.78,68.596h-7.48c-1.381,0-2.5-1.119-2.5-2.5  s1.119-2.5,2.5-2.5h7.48c1.381,0,2.5,1.119,2.5,2.5S114.161,68.596,112.78,68.596z M112.78,60.029h-7.48c-1.381,0-2.5-1.119-2.5-2.5  s1.119-2.5,2.5-2.5h7.48c1.381,0,2.5,1.119,2.5,2.5S114.161,60.029,112.78,60.029z M112.78,51.464h-7.48c-1.381,0-2.5-1.119-2.5-2.5  s1.119-2.5,2.5-2.5h7.48c1.381,0,2.5,1.119,2.5,2.5S114.161,51.464,112.78,51.464z M112.78,42.897h-7.48c-1.381,0-2.5-1.119-2.5-2.5  s1.119-2.5,2.5-2.5h7.48c1.381,0,2.5,1.119,2.5,2.5S114.161,42.897,112.78,42.897z" data-original="#000002" class="active-path" data-old_color="#000002" fill="#F3B007"/></g> </svg>
