<?xml version="1.0"?>
<svg xmlns="http://www.w3.org/2000/svg" xmlns:xlink="http://www.w3.org/1999/xlink" version="1.1" id="Layer_1" x="0px" y="0px" viewBox="0 0 511.999 511.999" style="enable-background:new 0 0 511.999 511.999;" xml:space="preserve" width="512px" height="512px"><g><g>
	<g>
		<path d="M511.952,484.497l-4.57-71.874c-2.081-32.734-23.384-60.938-54.271-71.854l-15.63-5.524l-5.108-1.805l-84.611-29.904    c-0.328-0.116-0.66-0.216-0.993-0.304c-0.144-0.039-0.289-0.069-0.434-0.102c-0.185-0.042-0.369-0.085-0.554-0.12    c-0.187-0.035-0.374-0.063-0.562-0.09c-0.137-0.02-0.275-0.038-0.412-0.053c-0.219-0.025-0.438-0.045-0.659-0.059    c-0.086-0.005-0.173-0.008-0.259-0.011c-0.192-0.008-0.384-0.024-0.577-0.024c-0.674,0-1.336,0.065-1.99,0.163    c-0.028,0.004-0.056,0.008-0.085,0.013c-2.055,0.319-3.989,1.107-5.678,2.317c-0.163,0.116-0.324,0.235-0.483,0.359    c-0.126,0.099-0.253,0.198-0.376,0.302c-0.249,0.209-0.491,0.428-0.725,0.657l-26.52-8.186l-0.002-20.152    c25.205-16.913,44.671-47.647,45.8-76.124h0.713c11.077,0,20.089-9.012,20.089-20.089v-18.829c0-2.443-0.46-4.775-1.263-6.943    c4.865-2.621,8.189-7.812,8.189-13.782v-10.513c0-7.624-5.416-13.987-12.548-15.336v-2.991c0-0.882-0.012-1.76-0.033-2.637    c-0.231-9.085-1.689-18.054-4.335-26.657c-1.218-3.96-5.422-6.182-9.373-4.965c-3.959,1.218-6.182,5.414-4.965,9.373    c2.244,7.298,3.481,14.911,3.677,22.629c0.02,0.749,0.029,1.502,0.029,2.257v10.229c0,4.143,3.357,7.5,7.5,7.5h4.681    c0.125,0,0.367,0.211,0.367,0.599v10.513c0,0.388-0.242,0.599-0.367,0.599H146.387c-0.125,0-0.367-0.211-0.367-0.599v-10.513    c0-0.388,0.242-0.599,0.367-0.599h4.681c4.143,0,7.5-3.357,7.5-7.5v-10.229c0-0.755,0.01-1.508,0.029-2.256    c1.004-39.577,30.123-73.063,67.8-79.767v27.591v0.014c0,6.848,2.753,13.062,7.206,17.604c0.058,0.059,0.113,0.121,0.171,0.18    c0.061,0.061,0.126,0.119,0.188,0.179c4.539,4.45,10.747,7.201,17.587,7.201h0.014h8.881h0.014c6.84,0,13.048-2.751,17.587-7.201    c0.062-0.061,0.127-0.118,0.188-0.179c0.059-0.059,0.114-0.121,0.171-0.18c4.453-4.542,7.206-10.756,7.206-17.604v-0.014V31.61    c20.515,3.615,39.02,15.124,51.687,32.404c2.449,3.34,7.141,4.063,10.483,1.614c3.34-2.449,4.063-7.143,1.614-10.483    c-16.062-21.911-40.104-35.97-66.533-39.089c-4.168-8.153-12.649-13.751-22.417-13.751h-8.881c-9.77,0-18.251,5.599-22.419,13.754    c-22.105,2.609-42.664,12.893-58.325,29.288c-16.927,17.72-26.593,41.037-27.218,65.657c-0.021,0.876-0.033,1.754-0.033,2.636    v2.991c-7.132,1.349-12.548,7.712-12.548,15.336v10.513c0,5.97,3.324,11.161,8.189,13.782c-0.802,2.168-1.263,4.5-1.263,6.943    v18.829c0,11.077,9.012,20.089,20.089,20.089h0.709c1.049,28.499,20.553,59.369,45.801,76.324l-0.002,19.952l-26.521,8.182    c-0.233-0.228-0.474-0.445-0.721-0.653c-0.124-0.104-0.25-0.203-0.377-0.303c-0.158-0.123-0.318-0.242-0.481-0.358    c-1.693-1.213-3.632-2.002-5.692-2.32c-0.018-0.003-0.036-0.005-0.053-0.008c-0.66-0.099-1.328-0.165-2.008-0.165    c-0.198,0-0.395,0.016-0.592,0.025c-0.079,0.003-0.159,0.005-0.238,0.01c-0.225,0.014-0.449,0.035-0.673,0.06    c-0.133,0.015-0.265,0.032-0.397,0.051c-0.192,0.028-0.384,0.056-0.574,0.092c-0.181,0.034-0.361,0.075-0.541,0.117    c-0.149,0.035-0.298,0.065-0.445,0.105c-0.333,0.089-0.663,0.188-0.991,0.304l-72.763,25.716l-16.957,5.993h-0.001l-15.63,5.524    c-30.887,10.915-52.189,39.119-54.27,71.853l-0.551,8.643c-0.263,4.134,2.875,7.698,7.009,7.961    c4.125,0.278,7.698-2.874,7.962-7.008l0.55-8.644c1.698-26.727,19.087-49.752,44.298-58.662l5.632-1.99v141.769H23.664    c-2.414,0-4.654-0.971-6.309-2.733c-1.661-1.771-2.491-4.082-2.337-6.509l2.099-33.005c0.263-4.134-2.876-7.697-7.01-7.961    c-4.131-0.263-7.697,2.876-7.961,7.01L0.047,484.5c-0.413,6.51,1.908,12.97,6.37,17.725c4.454,4.746,10.74,7.469,17.246,7.469    h53.354h56.742h244.479h56.742h53.354c6.506,0,12.792-2.723,17.246-7.469C510.044,497.467,512.365,491.007,511.952,484.497z     M353.322,158.116h0.643c2.806,0,5.089,2.282,5.089,5.088v18.829c0,2.806-2.283,5.089-5.089,5.089h-0.643V158.116z     M241.397,27.483c0-0.817,0.11-1.646,0.338-2.534c0.011-0.045,0.016-0.091,0.026-0.135c1.172-4.32,5.116-7.51,9.802-7.51h8.881    c4.685,0,8.63,3.19,9.802,7.509c0.01,0.045,0.015,0.091,0.026,0.135c0.228,0.888,0.338,1.717,0.338,2.534v31.725    c0,2.802-1.135,5.343-2.969,7.185c-0.003,0.003-0.005,0.006-0.008,0.009c-0.092,0.092-0.193,0.175-0.289,0.263    c-1.815,1.683-4.236,2.721-6.9,2.721h-8.881c-2.665,0-5.085-1.038-6.9-2.721c-0.095-0.089-0.197-0.171-0.289-0.263    c-0.003-0.003-0.005-0.006-0.008-0.009c-1.833-1.842-2.969-4.383-2.969-7.185V27.483z M158.679,187.122h-0.644    c-2.805,0-5.089-2.283-5.089-5.089v-18.829c0-2.806,2.283-5.088,5.089-5.088h0.644V187.122z M126.261,494.691H84.519v-147.07    l26.838-9.485l14.904-5.267V494.691z M173.679,199.722v-5.1v-36.507h164.642v36.507l0.001,0.013v4.89    c0,25.829-20.783,56.422-45.163,69.835c-0.063,0.034-0.125,0.068-0.188,0.102c-0.784,0.428-1.572,0.835-2.363,1.227    c-0.132,0.065-0.264,0.133-0.396,0.197c-1.695,0.825-3.404,1.563-5.121,2.21c-0.232,0.087-0.464,0.169-0.696,0.253    c-0.628,0.227-1.257,0.442-1.886,0.644c-0.245,0.079-0.491,0.159-0.736,0.234c-0.836,0.255-1.673,0.494-2.51,0.703l-0.981,0.244    c-1.801,0.448-3.504,0.86-5.124,1.235c-7.018,1.624-12.476,2.537-17.635,2.537c-6.423-0.001-13.039-1.362-23-3.874    c-0.839-0.211-1.677-0.454-2.515-0.713c-0.225-0.069-0.45-0.144-0.675-0.217c-0.665-0.215-1.329-0.443-1.992-0.687    c-0.189-0.07-0.378-0.136-0.568-0.208c-1.754-0.666-3.5-1.425-5.231-2.277c-0.059-0.029-0.118-0.059-0.177-0.088    C195.934,258.271,173.679,226.408,173.679,199.722z M210.394,312.29c5.473-1.688,9.149-6.671,9.149-12.397l0.002-13.366    c0.555,0.229,1.111,0.44,1.666,0.652c0.5,0.19,1,0.376,1.501,0.555c0.739,0.264,1.477,0.515,2.215,0.751    c0.307,0.098,0.614,0.195,0.922,0.288c1.003,0.304,2.005,0.593,3.005,0.845c2.556,0.645,4.94,1.222,7.202,1.734    c0.664,0.15,1.32,0.295,1.964,0.433c0.078,0.017,0.159,0.035,0.236,0.052c6.347,1.351,11.737,2.1,17.166,2.109    c0.033,0,0.067,0.001,0.1,0.001c0.001,0,0.002,0,0.003,0c5.911,0,11.753-0.87,18.834-2.431c2.361-0.521,4.859-1.118,7.543-1.786    l0.981-0.244c1.004-0.25,2.01-0.535,3.017-0.838c0.327-0.098,0.653-0.201,0.98-0.304c0.686-0.218,1.372-0.449,2.058-0.69    c0.372-0.13,0.744-0.254,1.114-0.391c0.8-0.297,1.599-0.61,2.398-0.939l0.001,13.572c0.002,5.726,3.679,10.707,9.148,12.394    l20.143,6.217c-0.063,0.055-0.124,0.111-0.187,0.166c-0.986,0.862-1.988,1.701-3.003,2.519c-0.177,0.143-0.354,0.285-0.531,0.426    c-1.016,0.808-2.044,1.596-3.087,2.361c-0.175,0.128-0.351,0.254-0.526,0.381c-1.064,0.77-2.14,1.522-3.231,2.247    c-0.137,0.091-0.276,0.178-0.413,0.269c-1.127,0.742-2.267,1.463-3.421,2.157c-0.05,0.03-0.1,0.06-0.151,0.09    c-1.143,0.683-2.3,1.337-3.468,1.973c-0.159,0.087-0.318,0.177-0.478,0.263c-1.127,0.605-2.268,1.184-3.417,1.744    c-0.222,0.108-0.443,0.218-0.666,0.324c-1.124,0.538-2.258,1.052-3.401,1.546c-0.248,0.107-0.497,0.214-0.746,0.319    c-1.143,0.483-2.294,0.946-3.454,1.385c-0.242,0.092-0.487,0.18-0.73,0.271c-1.184,0.438-2.376,0.858-3.578,1.25    c-0.198,0.064-0.398,0.125-0.596,0.188c-1.217,0.389-2.441,0.759-3.675,1.101c-0.124,0.034-0.247,0.068-0.371,0.102    c-1.239,0.338-2.488,0.649-3.742,0.94c-0.2,0.046-0.4,0.096-0.601,0.142c-1.244,0.28-2.496,0.532-3.753,0.765    c-0.253,0.047-0.506,0.095-0.76,0.14c-1.241,0.22-2.489,0.415-3.742,0.589c-0.262,0.036-0.525,0.072-0.789,0.106    c-1.265,0.165-2.534,0.308-3.81,0.426c-0.237,0.022-0.475,0.041-0.712,0.061c-1.317,0.112-2.638,0.204-3.965,0.265    c-0.161,0.008-0.323,0.011-0.484,0.018c-1.408,0.058-2.82,0.094-4.238,0.094c-0.006,0-0.012,0-0.019,0    c-1.441,0-2.877-0.036-4.307-0.096c-0.132-0.006-0.265-0.008-0.397-0.014c-1.367-0.063-2.727-0.156-4.083-0.273    c-0.187-0.016-0.374-0.031-0.561-0.048c-1.331-0.122-2.656-0.271-3.975-0.445c-0.195-0.026-0.39-0.052-0.585-0.079    c-1.323-0.182-2.641-0.388-3.95-0.622c-0.168-0.03-0.336-0.062-0.505-0.093c-1.342-0.247-2.678-0.516-4.004-0.816    c-0.098-0.022-0.195-0.047-0.292-0.069c-2.775-0.637-5.515-1.391-8.212-2.26c-0.095-0.031-0.191-0.059-0.286-0.09    c-1.288-0.419-2.565-0.868-3.833-1.34c-0.156-0.058-0.313-0.115-0.469-0.174c-1.235-0.466-2.46-0.958-3.675-1.474    c-0.174-0.074-0.347-0.148-0.52-0.222c-1.209-0.521-2.409-1.065-3.596-1.635c-0.156-0.075-0.311-0.152-0.467-0.228    c-1.208-0.587-2.407-1.196-3.591-1.832c-0.101-0.054-0.201-0.111-0.301-0.166c-2.463-1.335-4.871-2.778-7.22-4.325    c-0.108-0.071-0.217-0.14-0.325-0.211c-1.109-0.737-2.202-1.5-3.283-2.284c-0.161-0.117-0.324-0.232-0.485-0.35    c-1.049-0.769-2.084-1.562-3.105-2.375c-0.177-0.141-0.354-0.282-0.53-0.425c-1.012-0.816-2.01-1.653-2.994-2.512    c-0.065-0.057-0.13-0.115-0.195-0.173L210.394,312.29z M168.263,318.024l6.545,6.557c21.57,21.604,50.35,33.514,81.052,33.55    c0.047,0,0.093,0.002,0.14,0.002c0.004,0,0.007,0,0.01,0c19.067,0,37.394-4.586,53.72-13.225    c9.134-4.834,17.642-10.935,25.3-18.217c0.039-0.037,0.078-0.072,0.117-0.109c0.439-0.419,0.87-0.848,1.304-1.274    c0.247-0.243,0.497-0.48,0.742-0.725l0.001-0.001l6.547-6.557l5.895,2.083l2.416,0.854l-9.56,9.824    c-23.081,22.892-53.795,35.499-86.49,35.499s-63.409-12.607-86.49-35.499l-9.56-9.824L168.263,318.024z M370.741,494.691h-229.48    V327.567l3.115-1.101l14.43,14.828c0.03,0.031,0.061,0.062,0.091,0.092c25.914,25.729,60.399,39.899,97.104,39.899    s71.189-14.17,97.104-39.899c0.03-0.03,0.061-0.061,0.091-0.092l14.43-14.828l3.115,1.101V494.691z M427.481,494.69h-41.742    V332.868l14.904,5.267l26.838,9.485V494.69z M494.645,491.957c-1.654,1.763-3.895,2.733-6.309,2.733h-45.854V352.922l5.632,1.99    c25.211,8.91,42.6,31.936,44.298,58.662l4.57,71.874C497.136,487.875,496.306,490.187,494.645,491.957z" data-original="#000000" class="active-path" data-old_color="#000000" fill="#F3B007"/>
	</g>
</g></g> </svg>
