<?xml version="1.0"?>
<svg xmlns="http://www.w3.org/2000/svg" xmlns:xlink="http://www.w3.org/1999/xlink" version="1.1" id="Layer_1" x="0px" y="0px" viewBox="0 0 299.806 299.806" style="enable-background:new 0 0 299.806 299.806;" xml:space="preserve" width="512px" height="512px" class=""><g><g>
	<g>
		<g>
			<path d="M224.663,0.766h-62.3c-3.445,0-6.23,2.785-6.23,6.23v286.58c0,3.445,2.785,6.23,6.23,6.23h62.3     c3.445,0,6.23-2.791,6.23-6.23V6.996C230.893,3.551,228.108,0.766,224.663,0.766z M218.433,287.346h-49.84v-12.46h12.46     c3.445,0,6.23-2.785,6.23-6.23c0-3.445-2.785-6.23-6.23-6.23h-12.46v-12.46h24.92c3.445,0,6.23-2.785,6.23-6.23     s-2.785-6.23-6.23-6.23h-24.92v-12.46h12.46c3.445,0,6.23-2.785,6.23-6.23s-2.785-6.23-6.23-6.23h-12.46v-12.46h24.92     c3.445,0,6.23-2.785,6.23-6.23s-2.785-6.23-6.23-6.23h-24.92v-12.46h12.46c3.445,0,6.23-2.785,6.23-6.23s-2.785-6.23-6.23-6.23     h-12.46v-12.46h24.92c3.445,0,6.23-2.785,6.23-6.23s-2.785-6.23-6.23-6.23h-24.92v-12.46h12.46c3.445,0,6.23-2.785,6.23-6.23     s-2.785-6.23-6.23-6.23h-12.46v-12.46h24.92c3.445,0,6.23-2.785,6.23-6.23s-2.785-6.23-6.23-6.23h-24.92v-12.46h12.46     c3.445,0,6.23-2.785,6.23-6.23s-2.785-6.23-6.23-6.23h-12.46v-12.46h24.92c3.445,0,6.23-2.785,6.23-6.23s-2.785-6.23-6.23-6.23     h-24.92v-24.92h49.84V287.346z" data-original="#000000" class="active-path" data-old_color="#000000" fill="#F3B007"/>
			<path d="M143.673,63.066V31.368c0-17.88-10.716-31.368-24.92-31.368c-14.204,0-24.92,13.488-24.92,31.368v31.698h-18.69     c-3.445,0-6.23,2.785-6.23,6.23v80.99c0,3.445,2.785,6.23,6.23,6.23s6.23-2.791,6.23-6.23v-74.76h12.46v144.455     c0,0.604,0.087,1.19,0.255,1.776l18.69,62.861c0.791,2.642,3.221,4.454,5.975,4.454c2.747,0,5.183-1.813,5.975-4.454     l18.69-62.861c0.168-0.586,0.255-1.171,0.255-1.776V75.526c3.445,0,6.23-2.785,6.23-6.23S147.118,63.066,143.673,63.066z      M106.293,31.368c0-10.603,5.476-18.908,12.46-18.908c6.984,0,12.46,8.305,12.46,18.908v31.698h-24.92V31.368z M118.753,260.993     l-10.686-35.947h21.372L118.753,260.993z M131.213,212.586h-24.92V75.526h24.92V212.586z" data-original="#000000" class="active-path" data-old_color="#000000" fill="#F3B007"/>
		</g>
	</g>
</g></g> </svg>
