<?xml version="1.0"?>
<svg xmlns="http://www.w3.org/2000/svg" id="Capa_1" enable-background="new 0 0 492.002 492.002" height="512px" viewBox="0 0 492.002 492.002" width="512px"><g transform="matrix(-1, -0, 0, 1, 492.002, 0)"><path d="m3.312 309.368 82.425 41.333v90.693h-28.172c-3.314 0-6 2.686-6 6s2.686 6 6 6h68.966c3.314 0 6-2.686 6-6s-2.686-6-6-6h-28.794v-84.676l78.944 39.583c2.959 1.486 6.562.292 8.048-2.666.001-.003.003-.005.004-.008l14.131-28.179c1.485-2.962.288-6.568-2.674-8.053l-173.369-86.933c-2.962-1.485-6.567-.288-8.052 2.674l-14.131 28.179c-1.486 2.962-.288 6.568 2.674 8.053zm19.494-25.49 162.642 81.558-8.747 17.452-162.647-81.557z" data-original="#000000" class="active-path" data-old_color="#000000" fill="#F3B007"/><path d="m149.562 309.368 82.425 41.333v90.693h-28.172c-3.314 0-6 2.686-6 6s2.686 6 6 6h68.966c3.314 0 6-2.686 6-6s-2.686-6-6-6h-28.794v-84.676l78.944 39.583c2.959 1.486 6.562.292 8.048-2.666.001-.003.003-.005.004-.008l14.131-28.179c1.485-2.962.288-6.568-2.674-8.053l-173.369-86.933c-2.962-1.485-6.567-.288-8.052 2.674l-14.131 28.179c-1.486 2.962-.288 6.568 2.674 8.053zm19.494-25.49 162.645 81.558-8.752 17.452-162.648-81.557z" data-original="#000000" class="active-path" data-old_color="#000000" fill="#F3B007"/><path d="m488.69 357.401-173.369-86.939c-2.962-1.485-6.567-.288-8.052 2.674l-14.131 28.179c-1.485 2.962-.288 6.568 2.674 8.053l82.425 41.333v90.693h-28.172c-3.314 0-6 2.686-6 6s2.686 6 6 6h68.966c3.314 0 6-2.686 6-6s-2.686-6-6-6h-28.794v-84.676l78.944 39.583c2.959 1.486 6.562.292 8.048-2.666.001-.003.003-.005.004-.008l14.131-28.179c1.485-2.962.288-6.568-2.674-8.053zm-19.489 25.487-162.647-81.557 8.752-17.453 162.642 81.558z" data-original="#000000" class="active-path" data-old_color="#000000" fill="#F3B007"/><path d="m392.073 170.601c25.399-.038 45.958-20.659 45.92-46.058s-20.659-45.958-46.058-45.92-45.958 20.659-45.92 46.058c.01 6.889 1.568 13.687 4.558 19.893 7.626 15.98 23.794 26.119 41.5 26.027zm-14.825-76.611c16.913-8.148 37.228-1.042 45.375 15.87s1.042 37.228-15.87 45.375-37.227 1.042-45.375-15.87c-8.199-16.77-1.251-37.012 15.519-45.211.117-.057.234-.113.351-.169z" data-original="#000000" class="active-path" data-old_color="#000000" fill="#F3B007"/><path d="m360.423 72.887c1.474 2.968 5.075 4.179 8.043 2.705 2.918-1.449 4.146-4.961 2.767-7.913l-6.64-13.784c-1.402-3.002-4.973-4.3-7.975-2.898-3.003 1.402-4.3 4.973-2.898 7.975.02.043.041.086.062.129z" data-original="#000000" class="active-path" data-old_color="#000000" fill="#F3B007"/><path d="m415.57 173.53c-2.985 1.439-4.238 5.024-2.8 8.009l6.64 13.784c1.438 2.985 5.024 4.24 8.009 2.801 2.985-1.438 4.24-5.024 2.802-8.009l-6.641-13.784c-1.438-2.985-5.024-4.239-8.01-2.801z" data-original="#000000" class="active-path" data-old_color="#000000" fill="#F3B007"/><path d="m446.332 104.438c.901-.002 1.79-.207 2.6-.6l13.784-6.641c2.985-1.438 4.239-5.025 2.801-8.01s-5.025-4.239-8.01-2.801l-13.784 6.641c-2.986 1.436-4.243 5.022-2.806 8.008 1.001 2.081 3.106 3.402 5.415 3.399z" data-original="#000000" class="active-path" data-old_color="#000000" fill="#F3B007"/><path d="m335.071 145.376-13.784 6.641c-2.985 1.438-4.24 5.024-2.802 8.01 1.438 2.985 5.024 4.24 8.01 2.801l13.784-6.641c2.985-1.438 4.24-5.024 2.802-8.01-1.439-2.985-5.025-4.239-8.01-2.801z" data-original="#000000" class="active-path" data-old_color="#000000" fill="#F3B007"/><path d="m409.901 73.44c3.124 1.096 6.544-.548 7.64-3.672.001-.004.003-.007.004-.011l8.1-23.167c1.094-3.128-.555-6.551-3.683-7.645s-6.551.555-7.645 3.683l-8.1 23.167c-1.094 3.128.555 6.55 3.684 7.645-.001 0-.001 0 0 0z" data-original="#000000" class="active-path" data-old_color="#000000" fill="#F3B007"/><path d="m366.461 179.46-8.1 23.168c-1.094 3.128.555 6.551 3.683 7.645s6.551-.555 7.645-3.683l8.1-23.168c1.083-3.132-.577-6.549-3.709-7.632-3.116-1.078-6.519.561-7.619 3.67z" data-original="#000000" class="active-path" data-old_color="#000000" fill="#F3B007"/><path d="m443.17 142.501c-1.094 3.128.554 6.55 3.682 7.645h.001l23.167 8.1c3.124 1.105 6.552-.532 7.657-3.656s-.532-6.552-3.656-7.657c-.013-.005-.026-.009-.039-.014l-23.168-8.1c-3.128-1.094-6.55.555-7.644 3.682z" data-original="#000000" class="active-path" data-old_color="#000000" fill="#F3B007"/><path d="m310.02 102.293 23.168 8.1c3.119 1.119 6.555-.501 7.674-3.62s-.501-6.555-3.62-7.674c-.031-.011-.062-.022-.093-.032l-23.167-8.1c-3.124-1.104-6.552.533-7.656 3.658-1.104 3.124.533 6.552 3.658 7.656.011.004.024.008.036.012z" data-original="#000000" class="active-path" data-old_color="#000000" fill="#F3B007"/></g> </svg>
