<?xml version="1.0"?>
<svg xmlns="http://www.w3.org/2000/svg" xmlns:xlink="http://www.w3.org/1999/xlink" version="1.1" id="Capa_1" x="0px" y="0px" viewBox="0 0 394.464 394.464" style="enable-background:new 0 0 394.464 394.464;" xml:space="preserve" width="512px" height="512px" class=""><g><g>
	<path d="M162.515,394.236c0.642,0.163,1.276,0.228,1.91,0.228c2.991,0,5.82-1.658,7.234-4.414   l126.936-247.044c1.292-2.52,1.187-5.536-0.293-7.958c-1.479-2.414-4.105-3.894-6.942-3.894h-22.053   c-4.495,0-8.129,3.633-8.129,8.129c0,4.495,3.633,8.129,8.129,8.129h8.738l-105.485,205.32V233.745   c0-4.495-3.633-8.129-8.129-8.129h-35.327c-4.495,0-8.129,3.633-8.129,8.129c0,4.495,3.633,8.129,8.129,8.129h27.198v144.461   C156.304,390.098,158.873,393.358,162.515,394.236z" data-original="#010002" class="active-path" data-old_color="#010002" fill="#F3B007"/>
	<path d="M248.661,114.808c-1.374,4.267,0.984,8.852,5.267,10.218c4.292,1.374,8.852-0.992,10.218-5.259   l34.961-109.159c0.797-2.471,0.358-5.17-1.179-7.275C296.392,1.244,293.954,0,291.361,0H103.095c-2.211,0-4.333,0.902-5.869,2.504   c-1.528,1.601-2.349,3.764-2.252,5.974l8.787,206.515c0.179,4.365,3.788,7.779,8.112,7.779c0.122,0,0.236,0,0.358-0.008   c4.487-0.187,7.958-3.983,7.771-8.47l-8.429-198.036h168.652L248.661,114.808z" data-original="#010002" class="active-path" data-old_color="#010002" fill="#F3B007"/>
</g></g> </svg>
